<mxfile host="app.diagrams.net" modified="2022-09-20T01:32:53.890Z" agent="5.0 (Macintosh; Intel Mac OS X 10_15_7) AppleWebKit/537.36 (KHTML, like Gecko) Chrome/105.0.0.0 Safari/537.36" etag="ToR_rdU_zJoqMahRKXq_" version="20.3.2" type="github">
  <diagram id="3228e29e-7158-1315-38df-8450db1d8a1d" name="Page-1">
    <mxGraphModel dx="975" dy="822" grid="0" gridSize="10" guides="1" tooltips="1" connect="1" arrows="1" fold="1" page="1" pageScale="1" pageWidth="700" pageHeight="270" background="#EFF1F3" math="0" shadow="0">
      <root>
        <mxCell id="0" />
        <mxCell id="1" parent="0" />
        <mxCell id="LvesvwtV2vatUiFBe1HR-21534" value="" style="shape=image;verticalLabelPosition=bottom;verticalAlign=top;imageAspect=0;aspect=fixed;image=data:image/svg+xml,PHN2ZyB4bWxuczp4bGluaz0iaHR0cDovL3d3dy53My5vcmcvMTk5OS94bGluayIgeG1sbnM9Imh0dHA6Ly93d3cudzMub3JnLzIwMDAvc3ZnIiBoZWlnaHQ9IjIwMCIgd2lkdGg9IjIwMCIgdmVyc2lvbj0iMS4xIiB2aWV3Qm94PSIwIDAgMTAyNCAxMDI0IiBjbGFzcz0iaWNvbiI+PGRlZnM+PHN0eWxlIHR5cGU9InRleHQvY3NzIj5AZm9udC1mYWNlIHsgZm9udC1mYW1pbHk6IGZlZWRiYWNrLWljb25mb250OyBzcmM6IHVybCgiLy9hdC5hbGljZG4uY29tL3QvZm9udF8xMDMxMTU4X3U2OXc4eWh4ZHUud29mZjI/dD0xNjMwMDMzNzU5OTQ0IikgZm9ybWF0KCJ3b2ZmMiIpLCB1cmwoIi8vYXQuYWxpY2RuLmNvbS90L2ZvbnRfMTAzMTE1OF91Njl3OHloeGR1LndvZmY/dD0xNjMwMDMzNzU5OTQ0IikgZm9ybWF0KCJ3b2ZmIiksIHVybCgiLy9hdC5hbGljZG4uY29tL3QvZm9udF8xMDMxMTU4X3U2OXc4eWh4ZHUudHRmP3Q9MTYzMDAzMzc1OTk0NCIpIGZvcm1hdCgidHJ1ZXR5cGUiKTsgfSYjeGE7PC9zdHlsZT48L2RlZnM+PHBhdGggZmlsbD0iIzRBOTE5QiIgZD0iTTAgNzI4djEzNmMwIDM1LjMgMjguNyA2NCA2NCA2NGg4OTZjMzUuMyAwIDY0LTI4LjcgNjQtNjRWNzI4YzAtNC40LTMuNi04LTgtOEg4Yy00LjQgMC04IDMuNi04IDh6IG03NzQgOTZjMCA0LjQtMy42IDgtOCA4SDQyNGMtNC40IDAtOC0zLjYtOC04di00OGMwLTQuNCAzLjYtOCA4LThoMzQyYzQuNCAwIDggMy42IDggOHY0OHogbTEyMiAwYzAgNC40LTMuNiA4LTggOGgtNDhjLTQuNCAwLTgtMy42LTgtOHYtNDhjMC00LjQgMy42LTggOC04aDQ4YzQuNCAwIDggMy42IDggOHY0OHpNMCA1MzZ2MTQ0YzAgNC40IDMuNiA4IDggOGgxMDA4YzQuNCAwIDgtMy42IDgtOFY1MzZjMC00LjQtMy42LTgtOC04SDhjLTQuNCAwLTggMy42LTggOHogbTc3NCA5NmMwIDQuNC0zLjYgOC04IDhINDI0Yy00LjQgMC04LTMuNi04LTh2LTQ4YzAtNC40IDMuNi04IDgtOGgzNDJjNC40IDAgOCAzLjYgOCA4djQ4eiBtMTIyIDBjMCA0LjQtMy42IDgtOCA4aC00OGMtNC40IDAtOC0zLjYtOC04di00OGMwLTQuNCAzLjYtOCA4LThoNDhjNC40IDAgOCAzLjYgOCA4djQ4ek0wIDM0NHYxNDRjMCA0LjQgMy42IDggOCA4aDEwMDhjNC40IDAgOC0zLjYgOC04VjM0NGMwLTQuNC0zLjYtOC04LThIOGMtNC40IDAtOCAzLjYtOCA4eiBtNzc0IDk2YzAgNC40LTMuNiA4LTggOEg0MjRjLTQuNCAwLTgtMy42LTgtOHYtNDhjMC00LjQgMy42LTggOC04aDM0MmM0LjQgMCA4IDMuNiA4IDh2NDh6IG0xMjIgMGMwIDQuNC0zLjYgOC04IDhoLTQ4Yy00LjQgMC04LTMuNi04LTh2LTQ4YzAtNC40IDMuNi04IDgtOGg0OGM0LjQgMCA4IDMuNiA4IDh2NDh6TTk2MCA5Nkg2NGMtMzUuMyAwLTY0IDI4LjctNjQgNjR2MTM2YzAgNC40IDMuNiA4IDggOGgxMDA4YzQuNCAwIDgtMy42IDgtOFYxNjBjMC0zNS4zLTI4LjctNjQtNjQtNjR6TTc3NCAyNDhjMCA0LjQtMy42IDgtOCA4SDQyNGMtNC40IDAtOC0zLjYtOC04di00OGMwLTQuNCAzLjYtOCA4LThoMzQyYzQuNCAwIDggMy42IDggOHY0OHogbTEyMiAwYzAgNC40LTMuNiA4LTggOGgtNDhjLTQuNCAwLTgtMy42LTgtOHYtNDhjMC00LjQgMy42LTggOC04aDQ4YzQuNCAwIDggMy42IDggOHY0OHoiLz48L3N2Zz4=" parent="1" vertex="1">
          <mxGeometry x="553" y="402" width="77" height="77" as="geometry" />
        </mxCell>
        <mxCell id="LvesvwtV2vatUiFBe1HR-21535" value="" style="shape=flexArrow;endArrow=classic;startArrow=classic;html=1;rounded=0;fillColor=#FDD276;strokeColor=none;" parent="1" edge="1">
          <mxGeometry width="100" height="100" relative="1" as="geometry">
            <mxPoint x="219" y="406.64" as="sourcePoint" />
            <mxPoint x="525" y="406" as="targetPoint" />
          </mxGeometry>
        </mxCell>
        <mxCell id="LvesvwtV2vatUiFBe1HR-21536" value="&lt;font style=&quot;font-size: 20px;&quot; color=&quot;#4a919b&quot;&gt;HTTP交互&lt;/font&gt;" style="text;html=1;strokeColor=none;fillColor=none;align=center;verticalAlign=middle;whiteSpace=wrap;rounded=0;" parent="1" vertex="1">
          <mxGeometry x="298.75" y="364" width="116.5" height="30" as="geometry" />
        </mxCell>
        <mxCell id="3xwDzrGGyW2AHuEpQrqx-1" value="" style="shape=image;verticalLabelPosition=bottom;labelBackgroundColor=default;verticalAlign=top;aspect=fixed;imageAspect=0;image=data:image/svg+xml,PHN2ZyB4bWxuczp4bGluaz0iaHR0cDovL3d3dy53My5vcmcvMTk5OS94bGluayIgeG1sbnM9Imh0dHA6Ly93d3cudzMub3JnLzIwMDAvc3ZnIiBoZWlnaHQ9IjIwMCIgd2lkdGg9IjIwMCIgdmVyc2lvbj0iMS4xIiB2aWV3Qm94PSIwIDAgMTAyNCAxMDI0IiBjbGFzcz0iaWNvbiI+PHBhdGggZmlsbD0iIzRBOTE5QiIgZD0iTTcwNCA5ODEuMzMzMzMzaC0zODRBMTA2Ljc5NDY2NyAxMDYuNzk0NjY3IDAgMCAxIDIxMy4zMzMzMzMgODc0LjY2NjY2N3YtNzI1LjMzMzMzNEExMDYuNzk0NjY3IDEwNi43OTQ2NjcgMCAwIDEgMzIwIDQyLjY2NjY2N2gzODRBMTA2Ljc5NDY2NyAxMDYuNzk0NjY3IDAgMCAxIDgxMC42NjY2NjcgMTQ5LjMzMzMzM3Y3MjUuMzMzMzM0YTEwNi43OTQ2NjcgMTA2Ljc5NDY2NyAwIDAgMS0xMDYuNjY2NjY3IDEwNi42NjY2NjZ6IG0tMzg0LTg5NkE2NC4wODUzMzMgNjQuMDg1MzMzIDAgMCAwIDI1NiAxNDkuMzMzMzMzdjcyNS4zMzMzMzRBNjQuMDg1MzMzIDY0LjA4NTMzMyAwIDAgMCAzMjAgOTM4LjY2NjY2N2gzODRhNjQuMDg1MzMzIDY0LjA4NTMzMyAwIDAgMCA2NC02NHYtNzI1LjMzMzMzNEE2NC4wODUzMzMgNjQuMDg1MzMzIDAgMCAwIDcwNCA4NS4zMzMzMzN6Ii8+PHBhdGggZmlsbD0iIzRBOTE5QiIgZD0iTTYwMC42MTg2NjcgMTcwLjY2NjY2N0g0MjMuMzgxMzMzQTYwLjc1NzMzMyA2MC43NTczMzMgMCAwIDEgMzYyLjY2NjY2NyAxMDkuOTUyVjY0YTIxLjMzMzMzMyAyMS4zMzMzMzMgMCAwIDEgNDIuNjY2NjY2IDB2NDUuOTUyQTE4LjA0OCAxOC4wNDggMCAwIDAgNDIzLjM4MTMzMyAxMjhoMTc3LjIzNzMzNGExOC4wNDggMTguMDQ4IDAgMCAwIDE4LjA0OC0xOC4wNDhWNjRhMjEuMzMzMzMzIDIxLjMzMzMzMyAwIDAgMSA0Mi42NjY2NjYgMHY0NS45NTJBNjAuNzU3MzMzIDYwLjc1NzMzMyAwIDAgMSA2MDAuNjE4NjY3IDE3MC42NjY2Njd6TTU5Ny4zMzMzMzMgNjQwaC0xNzAuNjY2NjY2YTIxLjMzMzMzMyAyMS4zMzMzMzMgMCAwIDEtMjAuNjkzMzM0LTE2LjE3MDY2N0wzNjcuMzYgNDY5LjMzMzMzM0gzNDEuMzMzMzMzYTIxLjMzMzMzMyAyMS4zMzMzMzMgMCAwIDEgMC00Mi42NjY2NjZoNDIuNjY2NjY3YTIxLjMzMzMzMyAyMS4zMzMzMzMgMCAwIDEgMjAuNjkzMzMzIDE2LjE3MDY2Nkw0MTEuMzA2NjY3IDQ2OS4zMzMzMzNINjE4LjY2NjY2N2EyMS4zMzMzMzMgMjEuMzMzMzMzIDAgMCAxIDIxLjAzNDY2NiAyNC44MzJsLTIxLjMzMzMzMyAxMjhBMjEuMzMzMzMzIDIxLjMzMzMzMyAwIDAgMSA1OTcuMzMzMzMzIDY0MHogbS0xNTQuMDI2NjY2LTQyLjY2NjY2N2gxMzUuOTc4NjY2bDE0LjIwOC04NS4zMzMzMzNINDIxLjk3MzMzM3pNNDQ4IDczMS44NjEzMzNhMzIgMzIgMCAxIDEgMzItMzIgMzIgMzIgMCAwIDEtMzIgMzJ6IG0wLTQyLjY2NjY2NmExMC42NjY2NjcgMTAuNjY2NjY3IDAgMCAwLTEwLjY2NjY2NyAxMC42NjY2NjZjMCAxMS43MzMzMzMgMjEuMzMzMzMzIDExLjczMzMzMyAyMS4zMzMzMzQgMGExMC42NjY2NjcgMTAuNjY2NjY3IDAgMCAwLTEwLjY2NjY2Ny0xMC42NjY2NjZ6TTU3NiA3MzEuODYxMzMzYTMyIDMyIDAgMSAxIDMyLTMyIDMyIDMyIDAgMCAxLTMyIDMyeiBtMC00Mi42NjY2NjZhMTAuNjY2NjY3IDEwLjY2NjY2NyAwIDAgMC0xMC42NjY2NjcgMTAuNjY2NjY2YzAgMTEuNzMzMzMzIDIxLjMzMzMzMyAxMS43MzMzMzMgMjEuMzMzMzM0IDBhMTAuNjY2NjY3IDEwLjY2NjY2NyAwIDAgMC0xMC42NjY2NjctMTAuNjY2NjY2eiIvPjwvc3ZnPg==;" vertex="1" parent="1">
          <mxGeometry x="70" y="337" width="145" height="145" as="geometry" />
        </mxCell>
        <mxCell id="3xwDzrGGyW2AHuEpQrqx-2" value="" style="shape=image;verticalLabelPosition=bottom;labelBackgroundColor=default;verticalAlign=top;aspect=fixed;imageAspect=0;image=data:image/svg+xml,PHN2ZyB4bWxuczp4bGluaz0iaHR0cDovL3d3dy53My5vcmcvMTk5OS94bGluayIgeG1sbnM9Imh0dHA6Ly93d3cudzMub3JnLzIwMDAvc3ZnIiBoZWlnaHQ9IjIwMCIgd2lkdGg9IjIwMCIgdmVyc2lvbj0iMS4xIiB2aWV3Qm94PSIwIDAgMTAyNCAxMDI0IiBjbGFzcz0iaWNvbiI+PHBhdGggZmlsbD0iIzRBOTE5QiIgZD0iTTg1Ni4xOTIgOTkySDE2Ny44MDhjLTM5LjQ4OCAwLTcxLjU1Mi0zNS45NjgtNzEuNTUyLTgwLjA2NFY0ODBoNjR2NDMxLjkzNmMwIDEwLjM2OCA1LjY5NiAxNi4wNjQgNy41NTIgMTYuMDY0aDY4OC4zODRjMS44NTYgMCA3LjYxNi01LjY5NiA3LjYxNi0xNi4wNjRWNDgwaDY0djQzMS45MzZjMCA0NC4wOTYtMzIuMTI4IDgwLjA2NC03MS42MTYgODAuMDY0eiIvPjxwYXRoIGZpbGw9IiM0QTkxOUIiIGQ9Ik02NzkuNDI0IDc0MS42OTZIMzQ0LjUxMmMtMzkuNDI0IDAtNzEuNTUyLTM0LjM2OC03MS41NTItNzYuNjcyVjQ4Ni41OTJoNjR2MTc4LjQzMmMwIDcuNjE2IDQuNTQ0IDEyLjY3MiA3LjU1MiAxMi42NzJoMzM0LjkxMmMzLjA3MiAwIDcuNTUyLTQuOTI4IDcuNTUyLTEyLjY3MlY0ODYuNTkyaDY0djE3OC40MzJjMCA0Mi4zMDQtMzIuMTI4IDc2LjY3Mi03MS41NTIgNzYuNjcyeiIvPjxwYXRoIGZpbGw9IiM0QTkxOUIiIGQ9Ik04OTcuOTg0IDUyNi40NjRjLTM4LjQgMC03My4xNTItMTcuMjgtOTYuNTEyLTQ0LjkyOGExMjYuMTQ0IDEyNi4xNDQgMCAwIDEtMTkzLjE1MiAwLjA2NGMtMjMuMjMyIDI3LjUyLTU3LjkyIDQ0LjgtOTYuMjU2IDQ0Ljg2NGgtMC4zODRhMTI1Ljk1MiAxMjUuOTUyIDAgMCAxLTk2LTQ0Ljg2NCAxMjYuMzM2IDEyNi4zMzYgMCAwIDEtMTkzLjE1Mi0wLjA2NCAxMjYuMTQ0IDEyNi4xNDQgMCAwIDEtOTYuNTc2IDQ0LjkyOEExMjcuMDQgMTI3LjA0IDAgMCAxIDAuMTkyIDQxMy44ODhsMi4zNjgtMzUuOTY4YzAuMjU2LTMuMiAxLjAyNC02LjQgMi4yNC05LjM0NEwxMDEuMzEyIDEzMC41NmMxLjY2NC00LjIyNCAxNy4wODgtNDEuMDI0IDQzLjcxMi02OC42MDhDMTY4Ljg5NiAzNy4xODQgMjA2Ljg0OCAzMiAyMzQuNDk2IDMyYzggMCAxMy4xMiAwLjQ0OCAxMy4xMiAwLjQ0OGw1MzAuODgtMC4xMjhjMC41MTItMC4wNjQgNC45MjgtMC4zMiAxMS4wMDgtMC4zMiAyNy42NDggMCA2NS42IDUuMTg0IDg5LjQwOCAyOS44ODggMjYuNjg4IDI3LjY0OCA0Mi4wNDggNjQuNDQ4IDQzLjcxMiA2OC41NDRsOTYuNTc2IDIzOC4wMTZjMS4yOCAzLjAwOCAxLjk4NCA2LjIwOCAyLjI0IDkuNDA4bDIuNDMyIDI5LjYzMmMtNy42MTYgNzAuNTkyLTYxLjY5NiAxMTguOTc2LTEyNS44ODggMTE4Ljk3NnogbS05OS4wMDgtMTQ4LjY3MmMxNi4yNTYgMCAzNC44OCAxMi4xNiAzNi43MzYgMjguMzUyYTYzLjA0IDYzLjA0IDAgMCAwIDYyLjI3MiA1Ni4yNTYgNjMuMTA0IDYzLjEwNCAwIDAgMCA2Mi4yNzItNTZsLTEuOTg0LTE3LjkyLTk0LjkxMi0yMzMuOTJjLTAuMTI4LTAuMjU2LTEyLjA5Ni0yOS4xMi0zMC41MjgtNDguMTkyLTQuODY0LTUuMTg0LTIwLjI4OC0xMC4zNjgtNDMuMzI4LTEwLjM2OGwtNy42MTYgMC4xOTItNTM3LjA4OCAwLjEyOC0xMC4zMDQtMC4zMmMtMjMuMDQgMC0zOC40IDUuMTg0LTQzLjM5MiAxMC4zNjgtMTguMzY4IDE5LjA3Mi0zMC40IDQ4LTMwLjUyOCA0OC4yNTZMNjUuOTg0IDM4OC4wMzJsLTIuMTEyIDI0Ljc2OGMzLjY0OCAyNS41MzYgMzAuNCA0OS42NjQgNjIuMDggNDkuNjY0YTYzLjA0IDYzLjA0IDAgMCAwIDYyLjMzNi01Ni4yNTZjMS43OTItMTYuMTkyIDE1LjQ4OC0yOC40MTYgMzEuNzQ0LTI4LjQxNnMzNC44OCAxMi4yMjQgMzYuNzM2IDI4LjQxNmE2Mi45NzYgNjIuOTc2IDAgMCAwIDYyLjI3MiA1Ni4yNTZjMzIgMCA1OC43NTItMjQuMjU2IDYyLjI3Mi01Ni40NDggMS43OTItMTYuMjU2IDE1LjU1Mi0yOC41NDQgMzEuODcyLTI4LjU0NHMzNC44OCAxMi4yODggMzYuNjcyIDI4LjU0NGE2Mi45MTIgNjIuOTEyIDAgMCAwIDYyLjIwOCA1Ni40NDhjMzEuODcyIDAgNTguNjI0LTI0LjMyIDYyLjE0NC01Ni41MTIgMS43OTItMTYuMTkyIDE1LjQ4OC0yOC40OCAzMS44MDgtMjguNDhzMzQuODE2IDEyLjI4OCAzNi42MDggMjguNDhhNjMuMDQgNjMuMDQgMCAwIDAgNjIuMzM2IDU2LjUxMiA2Mi45NzYgNjIuOTc2IDAgMCAwIDYyLjI3Mi01Ni4yNTYgMzEuOTM2IDMxLjkzNiAwIDAgMSAzMS43NDQtMjguNDE2eiIvPjwvc3ZnPg==;" vertex="1" parent="1">
          <mxGeometry x="557" y="328" width="69" height="69" as="geometry" />
        </mxCell>
      </root>
    </mxGraphModel>
  </diagram>
</mxfile>
